<svg id="Layer_1" data-name="Layer 1" xmlns="http://www.w3.org/2000/svg" viewBox="0 0 77.37 121.1"><defs><style>.cls-1{fill:#fff;}</style></defs><title>arrow</title><path class="cls-1" d="M453.38,192.65c.45-.08.21-.45.26-.54C452.88,192.4,453.45,192.74,453.38,192.65Z" transform="translate(-402.66 -192.11)"/><path class="cls-1" d="M447.54,195.71l0-.2q-.36.37-.7.76C447.09,196.07,447.31,195.88,447.54,195.71Z" transform="translate(-402.66 -192.11)"/><path class="cls-1" d="M442.14,198.26c.81.35,1.88-1.07,2.94-1.32l.23.07.2-.72A26.47,26.47,0,0,1,442.14,198.26Z" transform="translate(-402.66 -192.11)"/><path class="cls-1" d="M438.59,198.47c.31.14-.48.56.69-.31h-.15A6.18,6.18,0,0,1,438.59,198.47Z" transform="translate(-402.66 -192.11)"/><path class="cls-1" d="M439.13,198.16c.54-.34-.48,0,0,0Z" transform="translate(-402.66 -192.11)"/><path class="cls-1" d="M436.67,199.81l.59-.64c-.24-.05-.9.3-.73.06C435.88,199.8,436.12,199.85,436.67,199.81Z" transform="translate(-402.66 -192.11)"/><path class="cls-1" d="M436.29,200.69l.31-.33C436.49,200.34,436.38,200.39,436.29,200.69Z" transform="translate(-402.66 -192.11)"/><path class="cls-1" d="M437.26,199.69c-.22.22-.45.44-.67.67.16,0,.29.22.31-.3C437,200.28,437,200,437.26,199.69Z" transform="translate(-402.66 -192.11)"/><path class="cls-1" d="M437.76,199.51c.48-.11,1.05-.33.46.31C439.54,198.92,439.09,198.61,437.76,199.51Z" transform="translate(-402.66 -192.11)"/><path class="cls-1" d="M442.22,199.05l.64-.11.36-.46C443,198.7,442.09,198.88,442.22,199.05Z" transform="translate(-402.66 -192.11)"/><path class="cls-1" d="M432.12,202.44c0,.15.47.16.63.29l.4-.5C432.84,202.32,432.29,202.6,432.12,202.44Z" transform="translate(-402.66 -192.11)"/><path class="cls-1" d="M432.75,202.73l-.6.75C432.84,203,432.89,202.83,432.75,202.73Z" transform="translate(-402.66 -192.11)"/><path class="cls-1" d="M436.59,201.43c.32-.43.64-.86,1-1.27-.43.46-.82,1-1.22,1.43Z" transform="translate(-402.66 -192.11)"/><polygon class="cls-1" points="26.61 12.46 26.81 11.85 26.4 12.86 26.61 12.46"/><path class="cls-1" d="M427.46,206.08c.12-.47-.73,0-.53-.44a5,5,0,0,0-.93,1.51A3.12,3.12,0,0,1,427.46,206.08Z" transform="translate(-402.66 -192.11)"/><path class="cls-1" d="M425.61,208a5.8,5.8,0,0,0,.4-.79A2.9,2.9,0,0,0,425.61,208Z" transform="translate(-402.66 -192.11)"/><path class="cls-1" d="M430.84,204.34a1,1,0,0,0-.83.11l.55.11Z" transform="translate(-402.66 -192.11)"/><path class="cls-1" d="M430.57,204.57h0l-.63.47Z" transform="translate(-402.66 -192.11)"/><path class="cls-1" d="M430.91,204.29l-.07.06C430.89,204.36,430.92,204.35,430.91,204.29Z" transform="translate(-402.66 -192.11)"/><path class="cls-1" d="M434.37,202.43c-.31.5-1.06,1.37,0,1C434.54,203,433.91,203.19,434.37,202.43Z" transform="translate(-402.66 -192.11)"/><path class="cls-1" d="M431.6,204.45l.85-.49c-.08-.08-.32-.11-.18-.36Z" transform="translate(-402.66 -192.11)"/><polygon class="cls-1" points="28.63 12.73 28.94 12.34 28.62 12.52 28.63 12.73"/><path class="cls-1" d="M427.14,207.14a4,4,0,0,1-.91,1.11,11.43,11.43,0,0,0,1.35-1C427.55,207.08,427.58,206.73,427.14,207.14Z" transform="translate(-402.66 -192.11)"/><path class="cls-1" d="M428.82,205.9l-.06.08C428.83,206,428.87,206,428.82,205.9Z" transform="translate(-402.66 -192.11)"/><polygon class="cls-1" points="19.82 19.65 19.93 19.65 19.89 19.59 19.82 19.65"/><path class="cls-1" d="M427.7,207.23a1.32,1.32,0,0,0,.6-.7c-.22.22-.46.46-.72.7C427.59,207.3,427.61,207.33,427.7,207.23Z" transform="translate(-402.66 -192.11)"/><path class="cls-1" d="M424.66,209.06a6.46,6.46,0,0,0,.71-.31C425.11,208.79,424.64,208.92,424.66,209.06Z" transform="translate(-402.66 -192.11)"/><path class="cls-1" d="M428.57,206l0-.05C428.44,205.94,428.49,206,428.57,206Z" transform="translate(-402.66 -192.11)"/><path class="cls-1" d="M428.57,206a2.55,2.55,0,0,0-.27.55,4.37,4.37,0,0,0,.46-.55Z" transform="translate(-402.66 -192.11)"/><path class="cls-1" d="M423.35,214.77c-.25-.34.26-1.35,1.23-1.7.45-.85-.88-1.37-2-1.31.1.14.21.26-.31,1.09.4-.09,1.88-1.12,1.55-.31-.75,1-.84.62-1.42.91.7,0-.57,1.67.15,2l.55-1C423.21,214.5,423.07,214.92,423.35,214.77Z" transform="translate(-402.66 -192.11)"/><path class="cls-1" d="M423.94,210.5l.25-.31a4.25,4.25,0,0,1-1.36.57c-.34.6-.34.8-.27.93l1.44-1.33Z" transform="translate(-402.66 -192.11)"/><path class="cls-1" d="M425.5,209c.06.53-.53,1.28.22,1.24.84-.78.36-.8.76-1.4-1.33,1.32.25-.54-.94.18a7.14,7.14,0,0,1,.69-.76c-.29.19-.58.35-.86.5h.06c.1,0,.14,0,0,0l0,0a.42.42,0,0,1,0,.18c-.47.29-.14,0,0-.18a.32.32,0,0,0,0-.06h0c-.43.47-.84,1-1.23,1.45A15.88,15.88,0,0,0,425.5,209Z" transform="translate(-402.66 -192.11)"/><path class="cls-1" d="M434.12,204.8a.11.11,0,0,1-.11,0C434,204.86,433.94,204.92,434.12,204.8Z" transform="translate(-402.66 -192.11)"/><path class="cls-1" d="M433.36,205a.89.89,0,0,1,.44-.55c.38-.12.12.17.22.27.15-.25.57-.79-.22-.48l-.07.12c-.69.31-1.79.45-1.72.32A3.11,3.11,0,0,0,433.36,205Z" transform="translate(-402.66 -192.11)"/><path class="cls-1" d="M429.42,207c-.36.38-.72.75-1.06,1.15.28-.08.55-.16.84-.22l-.17-.15C429.77,207.3,429.44,207.2,429.42,207Z" transform="translate(-402.66 -192.11)"/><polygon class="cls-1" points="19.54 19.63 19.36 19.16 19.17 20.25 19.54 19.63"/><polygon class="cls-1" points="18.15 21.13 17.91 20.8 17.72 21.36 18.15 21.13"/><path class="cls-1" d="M421.29,244.06l-.28.35A2,2,0,0,0,421.29,244.06Z" transform="translate(-402.66 -192.11)"/><path class="cls-1" d="M423.83,242.22l0-.21C423.72,242.19,423.72,242.29,423.83,242.22Z" transform="translate(-402.66 -192.11)"/><path class="cls-1" d="M441.62,247.91c.6.48,1.26,1.19,1.25.73l-.13-.46A2.44,2.44,0,0,1,441.62,247.91Z" transform="translate(-402.66 -192.11)"/><path class="cls-1" d="M447.31,233l.16.17.52-.3Z" transform="translate(-402.66 -192.11)"/><path class="cls-1" d="M446.56,234.72l-.74-.39A3.38,3.38,0,0,0,446.56,234.72Z" transform="translate(-402.66 -192.11)"/><path class="cls-1" d="M409.92,256.24l.15.61C410.42,256.25,410.08,256.4,409.92,256.24Z" transform="translate(-402.66 -192.11)"/><path class="cls-1" d="M415.36,234.11a4.92,4.92,0,0,0,.73,1.52C415.77,234.87,415.79,234.08,415.36,234.11Z" transform="translate(-402.66 -192.11)"/><path class="cls-1" d="M419.54,239.63c-.18.23-.23.37-.16.45C419.57,239.84,419.65,239.68,419.54,239.63Z" transform="translate(-402.66 -192.11)"/><path class="cls-1" d="M417.33,237.07c0-.11-.11-.21-.16-.32a5,5,0,0,1-1.08-1.12A2.22,2.22,0,0,0,417.33,237.07Z" transform="translate(-402.66 -192.11)"/><path class="cls-1" d="M449.78,289.49l.13.09C449.94,289.52,449.87,289.5,449.78,289.49Z" transform="translate(-402.66 -192.11)"/><path class="cls-1" d="M467.06,297.92c-.19,0-.49-.06-.77-.11A2.4,2.4,0,0,0,467.06,297.92Z" transform="translate(-402.66 -192.11)"/><path class="cls-1" d="M415.29,219.82c.21-.44,0-.09,0,0Z" transform="translate(-402.66 -192.11)"/><path class="cls-1" d="M417.94,218.88a.29.29,0,0,0,.07.27A.36.36,0,0,1,417.94,218.88Z" transform="translate(-402.66 -192.11)"/><path class="cls-1" d="M422.46,237.92l0,0C422.43,237.8,422.44,237.83,422.46,237.92Z" transform="translate(-402.66 -192.11)"/><path class="cls-1" d="M415.83,219.31a2.24,2.24,0,0,0-.43.45Z" transform="translate(-402.66 -192.11)"/><path class="cls-1" d="M415.6,219.28l.27-.32C415.84,218.87,415.77,218.89,415.6,219.28Z" transform="translate(-402.66 -192.11)"/><path class="cls-1" d="M415,220.43a5,5,0,0,1,.41-.67c-.07.07-.11.09-.11.06Z" transform="translate(-402.66 -192.11)"/><path class="cls-1" d="M417.88,278.13l.05.08C418.38,278.28,418.21,278.21,417.88,278.13Z" transform="translate(-402.66 -192.11)"/><path class="cls-1" d="M452.81,244.47l0,0h.05Z" transform="translate(-402.66 -192.11)"/><path class="cls-1" d="M453.88,244c-.33.6-.64.64-1,.52.17.41.36.82.56,1.22A9.19,9.19,0,0,0,453.88,244Z" transform="translate(-402.66 -192.11)"/><path class="cls-1" d="M415.64,249.06l1-.41c-.48,1.31-1.28,1.74-.2,1.5-.81-1.09,2.81-2.79,2.08-3.86l.71-.21c-.16.11-.13.19-.29.31,1.43-.33.13-1.38,1.57-2.32.53-.28,1-.36.76,0l.86-1c.32-.21.39,0,.07.24l1.55-1.28v0a7.76,7.76,0,0,1,.67-1.25c.54-.12-.14.26.07.33l.76-.88c.57,0,0,.84-.69,1.21,1.61.59.57-.83,2.89-1.29-.27.22-.54.43-.8.67,1,.29,1.52-.3,2.74-.45-.34-.1-2.61.08-1.75-.79a2,2,0,0,0,1.18-.81c.23.42.71,0,1.41-.35l.24.6c.67-.52.47-.79.79-1.26a1.31,1.31,0,0,1,1.61.35c1.4-.44-1.26-.36.33-1.11a5.42,5.42,0,0,0,1.6-.57c.5-.24,1-.56,1.67-1,.89,0,0,.42.3.51.2-.25.4-.45.61-.68.19,0,.16.14.15.22.58-.33-.1-.63.87-1,.07-.37.64-.26,1.32-.08a2.54,2.54,0,0,0,2-.14c.32.17-.12.4,0,.64.82-.3,1.19-.41,1.51-.54a13.79,13.79,0,0,0,1.35-.55,8.07,8.07,0,0,1,1.15.53c-.81-.6.35-1,1.5-1.31a5.91,5.91,0,0,0-.72-.65,12,12,0,0,1,1.78,0c.18.15,0,.32-.38.52l.34-.07c.54.37.12.65-.37.9l-.49-.53c-.48.27-.92.68-.9,1.05a1.18,1.18,0,0,1,.54-.09c-.12.08-.2.16-.17.23s.22,0,.51-.12l.18.78.15-.26a13.51,13.51,0,0,1,1.75,1c.4-.07.77-.08,1.18-.13a6.36,6.36,0,0,1,1.27,0,5.38,5.38,0,0,1,2.91,1c-.8,0-.66.55-1.1,1,0-.47-.41-.67-.89-.86a6.42,6.42,0,0,1-1.54-.65c.48.37.22.55,0,.57.33.09.68.16,1,.27l1,.37c-.34.35.08.57.3,1.07.42-1,1.56.57,2.17,1.14-.28.22-.63.22-1.14-.57.05.63.4.73.88.85s.9.33.77.93c-.06-.22-.09-.35-.29-.36.29.18.39.63.46,1s-.12.58-.28.46l0-.19a3.26,3.26,0,0,1-.39,2.12,4.31,4.31,0,0,1-.31.45,2.59,2.59,0,0,0-.33.41c-.21.26-.4.48-.38.71a11.94,11.94,0,0,1-.2-1.2,5.84,5.84,0,0,1-.32.89c-.16.27-.35.55-.56.84a9.22,9.22,0,0,1-1.56,1.57c.15-.37-.07-1-.11-1.56a1.18,1.18,0,0,1,.68-1.36,2.46,2.46,0,0,0-.64-.09,4.11,4.11,0,0,0-1.08.13c.28.11.7,1.08.3,1.13a11.1,11.1,0,0,0-2.07-1.23c.43.18-.14,1.31-.85,1.2.12-.16,0-1.13.3-1.23-.61.32-1.22.64-1.85.95.46-.15.18-.94-.16-1.3.15.24-1.48-.2-2-.17l.69.37c-1.91-.46-2.18,1.27-4.14.84.29-.18.85-1.28-.09-1.63-.55.48-2.58,2.29-4.47,2.25l-.25-.41c-.48,0-1,0-1.44,0a45.6,45.6,0,0,1,5.21-2.17c-.66-.41-.11-.42-1.19-.65-.3-.39.69-.32,1-.26-.8-.27-1.61-.51-2.4-.81-.07.69-2,.13-2.11.68,1,.06,1.91.06,2.86.07,0,.67-2.05,1.46-3.8.78-.37-.39.69-1,.72-1.27a3,3,0,0,1-1.88-.32l.84-.1c-.86-.55-1.85.32-2.76-.72-.38-.18-.82-1.26-1-.92.32,1-.41,3.23-1.08,3.58-.06-.05-.53-.45-1-.89a6.89,6.89,0,0,1-1.1-1.26c-.37-.84,1.57-.85,1.24-1.57-.1.16-.54.2-.72.2-.33-.33.4-.42-.47-.78-.45.53-1.68-.94-.66.31-.93-.26-.82-.58-1.76-1.11,0,.28-.36.48-.9.56a3.53,3.53,0,0,1-1.66-.19c.15-.11.09-.42.07-.56a25.1,25.1,0,0,1-3.35-3.46c0-.24-.35-1,.1-.93-.23-.12-.6-.14-.9-.59,0-.6.15-.36.35-.11s.48.47.52,0c-.19.1-.47-.1-.8-.39-.16-.15-.34-.31-.5-.48s-.29-.35-.43-.49c-.48.49.74,1.65,1.43,2.06a1.48,1.48,0,0,1-1.54,0,4.88,4.88,0,0,1-1-.67,8.87,8.87,0,0,1-1-1.15c-.75-1.56.29-.87.08-1.11a9.63,9.63,0,0,0-1.06-2.75,2.62,2.62,0,0,1-.07-2.58c.78-.92,1.06.18,1.49,0,0,1.26-.61,1.91-.54,2.82.08-.37.13-.73.23-1.08a3.65,3.65,0,0,1,.22,1.71c.19-.43.13-1.62.36-3a8.72,8.72,0,0,1,1.58-3.65c0-.42.18-1.12-.16-.94l-.27.66c-.7.39.11-1.49-.5-.77a7.49,7.49,0,0,1,.44-1.61,3.71,3.71,0,0,1,1.07-1.59l.64.18c-.15-.09-.87.46-.93.9.13-.65,1.94-1.13,1.73-2.11-.32.13-.62.31-.94.47a6.62,6.62,0,0,1,1.68-3c-.82,0-.14.25-1.24.4.58,0,0,.58-.44,1.11s-.92,1.11-.17.91a2.22,2.22,0,0,0-1.26.65,6.42,6.42,0,0,1-1.31,1c.19.08.57-.15-.13.71a1.12,1.12,0,0,1,0,.3l-.05.05.05,0c0,.06,0,.06,0,0a1.25,1.25,0,0,1,.57-.3,4,4,0,0,1-.38,1.41,7.65,7.65,0,0,0-.44,1.39c-.37.53-.09-.34-.44-.12,0,.32,0,.65,0,1-.44-.11-1.35,1.42-1-.18a9.11,9.11,0,0,0-.5,1.4,5.73,5.73,0,0,0-.59,1.41,4.75,4.75,0,0,0-.08,1.44c-.16.75.53,1.87.14,1.23a12.2,12.2,0,0,0,.59,2.38l-.1,0a10,10,0,0,0,.63,1.7c.3.52.62,1,.95,1.56s.69,1,1,1.51a12,12,0,0,1,.93,1.65,16.32,16.32,0,0,1,2,1.77l-.07.45c.79.49,2,2,2.55,1.85.11.73,1,1.34,2.09,1.89s2.23.92,2.9,1.32l.26-.44a13.16,13.16,0,0,0,3.24,1l.09-.45c1.16,0,2.57,1.29,4.28,1.74-.16.13-.58,0-.85-.23,1.74,1.62,4.45.49,6.12,1.61a1.63,1.63,0,0,1,1.12.24h-.12l.19,0c.19.12.39.24.6.35a2.5,2.5,0,0,0-.5-.34,8.8,8.8,0,0,0,1.47.09l.15.52h.13c.5.26.46-.16.24-.56a3.08,3.08,0,0,0,.75-.18c.31.84,1.43,0,1.91.84.41-.34,2.76,0,3.11-.84,0,.11.16.17-.13.16a3,3,0,0,0,1.74.06l.23.62,1.34-.79c.84.33,1.28.53.38,1,.55-.21.92-.34,1.2-.42l.7-.27a3.6,3.6,0,0,0,1.5-1l.07.4a2.11,2.11,0,0,0,.51-.31l.49-.49c.15-.16.31-.29.44-.42a.75.75,0,0,1,.39-.25,2.08,2.08,0,0,0,.73-.51,4.48,4.48,0,0,0,.7-1.08,5.77,5.77,0,0,0,.3-3.29,14.5,14.5,0,0,0-3.07-5.8c-.13.67-.36.28-.65-.2s-.73-1-1-.68c0-.35-.35-.8.28-.63a19,19,0,0,1-2-1.23,2.64,2.64,0,0,0-1.83-.44c-.1-.33.53-.24.41-.46-.17,0-.65,0-.78-.2s.34-.13.67-.13c-1.89-.64-2.31.19-2.64.93-.79-.58-1.28-.67-2-.22-.27-.3-.77-.65.37-.58a15.23,15.23,0,0,0-2.17-.39c-.9-.05-1.74,0-1.77.3-.2-.15-.88,0-1,.07a12.1,12.1,0,0,0-2.88.24l.39.05c-.42.83-1.09.3-2.14.65v-.08c-2.59,0-1,.48-3.53.57l.28.42c.1,1-2.24.15-3.44,1.05l.58.07c-.58.56-2.54-.38-3.34-.16-.2,0,.18-.25.38-.41-2.16.37,0,.66-1.28,1.5-.41-.16-.08-.94-1-.48-.29,0-.83.62-1.47,1.25a4.42,4.42,0,0,1-2.11,1.43c.4,0,.8.1.31.65-.87.63-3,.85-3.29,2.11-.15,0-.24,0-.28,0-.27.34-.77.79-1.18,1.28a3.54,3.54,0,0,0-.82,1.31c-.81-.4-1.69.56-2.43,1.5s-1.36,1.86-1.87,1.29c-.6.6-1.22,1.15-1.8,1.8l-.06-.16a5.19,5.19,0,0,0-1.17,1.39,3.67,3.67,0,0,0-.31,1.08c-.33.21-.25-.09-.29-.16a7.73,7.73,0,0,0-1.71,1.84,7,7,0,0,0-.75,2.18l-.54-.09a9.87,9.87,0,0,1-1.33,1.91,7,7,0,0,0-1.39,3.57.41.41,0,0,1-.14-.33c-.16,1.44-.72,3.11-.89,4.7,0,.39-.05.78,0,1.13a5.34,5.34,0,0,0,.17,1,1.48,1.48,0,0,0,1,1.13,13.25,13.25,0,0,0,1,1.63c-.34-1.14-.12-1.1.17-.94s.65.47.64,0c.34.77.42,2.29-.15,1.35v-.19c-.52,0-.29.69,0,1.41s.75,1.4.48,1.54a34.69,34.69,0,0,0,9.28,9.35v-.87c.39.28.79.54,1.19.81.23.35.13.76-.73.18.24.65,1.66.63,1.76.49,1.58,1.28-1.11.33-.59.66l.76.38-.12-.17a3.19,3.19,0,0,1,2,.47c.61.5.13.59.39.76,0,0,.05.11.41.24.53.29,1.05.6,1.59.88l-.39-.84c.84.11,1.5.77,1-.17.32.72,1.79,1.54,3.27,2.19a26.76,26.76,0,0,1,3.23,1.46,9.29,9.29,0,0,1,3.45,1c-.27-.24-.23-.91.83-.43-.86,1.11,1.8,1.28,2.38,2.49-.59-.87,3.2.92,2.23-.37.89.41-.1.5.5,1,2.36.23,4.78,1.86,7.59,2.47.09-.16-.3-.54.36-.63l1.22,1.25c.57.06.77-.84,1.61,0-.1-.18-.26-.45.12-.41,5.22,2.27,11.24,2,16.5,4.71-.69-.48-.18-.42.4-.32-.36-.15.09-.42.06-.67l2.22,1.09c.54-.57,2.53.4,2.88-.18h-.76c1.11-.56-1.09-1.87-.78-2.79-1.25.64-2.64-1.76-4.65-.93-.36-.27.4-.24.23-.5-.53.31-1.1.29-2.07-.1l.13-.08c-2.86-.5-4-1.16-7.08-2.16l.12.52a3.06,3.06,0,0,1-1.06-.59c-.95.51,1.9.49,1,1.1-.68-1.14-4.79-1.18-5.12-2.42-1-.28.17.61-.87.33l-.2-.36-.36.3c-.66-.24-.91-.69-.87-.94a3.08,3.08,0,0,0,.67.08c-.79-.57-2.5-.57-2.78-.76l.94.45c-2.9-.51-6.19-1.91-9.05-2.24l.13.28c-2.18-.3-1.56-.78-3.85-1.39l.1,0a3.84,3.84,0,0,1-1.75-.31c.65,0-.87-.88,0-.87-2.33-.42-1.2-.08-2.94.12l-.19-.48a2.5,2.5,0,0,1-1.85-.11c1,.08-.47-.81.69-.78-1.94-1.7-3.69-.73-4.21-2.29-1.47.44,1.69,1.42,1,1.35.35.53-1.18.31-1.84-.13s-.64-1.76-2.38-2.65c.17.09.22,0,.39.13-.53-.57-1.43-.38-2-1.18-.74.28-1-.62-1.51,0,.55.25,1.09.52,1.65.75-1-.32-2.31,0-3.5-1.32a3.06,3.06,0,0,1,1.09.11c-.29-.46-.89-.37-1.18-.86.55-.57,1.92,1,3.18,1.06-.28-.54-2.05-.56-1.14-1-1.25.51-1.53-1.13-3.06-1.2l.34-.34a2.77,2.77,0,0,1-1-.37l.91-.09c-1.16-.19-1.31-1.56-2.22-2,1.59,1.3,0,.73.45,1.56-1.23-.56-1.29-1.08-1.35-1.6a2.68,2.68,0,0,0-1.12-2c.27.23.79,1.19.2.94a3.55,3.55,0,0,1-.66-1.48c-1.2-1.31-.21.53-.91.13.07-.85-.76-.54-1.36-1.12l.4-.28c-.45-.92-.68-.93-1-.9s-.55.07-.78-.87c.32.14.61.28.94.4-.2-.25-.37-.51-.56-.77l.58-.06a2.21,2.21,0,0,1-.69-.94,3.34,3.34,0,0,1-.19-1.1c-.25.3-.94.1-1.06-.8.21-.64.46.27.29-.95.3.27.72.49.36,1.07.16,0,.34.21.5.23a1.84,1.84,0,0,0,0-1c0-.34-.11-.67-.13-.87a1.08,1.08,0,0,1-.09.45,10.46,10.46,0,0,1-.62-1.75c.23-.26.32,0,.45.21a5.68,5.68,0,0,1-.14-1.16c.36.21.77.27.83,1A10,10,0,0,1,408,260c.18-.07.68-.67.76-.42.29-.38.24-1,.37-1.59a5.65,5.65,0,0,1,.21-1,2.71,2.71,0,0,1,.52-.84.84.84,0,0,1,.07-.52c.78-1,1.78-1.59,2.36-3.08l1.1-.18c.68-1-1.45.28-.29-1.39.86-1.18.81,0,1.3-.18a3.65,3.65,0,0,1,2.08-2.64C416.24,248.58,415.91,248.74,415.64,249.06Zm12-9.49c-.21.23-.55.79-.89.65C426.75,239.58,427.12,239.68,427.64,239.57Zm21.63-5.07c-.26.09-.53-.12-.86-.37A1.48,1.48,0,0,1,449.26,234.5ZM413.68,225v0C413.38,225.85,413.49,225.56,413.68,225Zm.62-1.59c0-.17-.07-.19-.16-.14a1.75,1.75,0,0,1-.15.93C414.14,224.12,414.27,223.94,414.3,223.43Zm5.87,59.77L420,283C420.61,283.13,420.39,283.16,420.17,283.2Z" transform="translate(-402.66 -192.11)"/><path class="cls-1" d="M446.65,234.52a.47.47,0,0,1-.08-.28C446.45,234.31,446.43,234.4,446.65,234.52Z" transform="translate(-402.66 -192.11)"/><path class="cls-1" d="M409.89,256.13l0,0a.22.22,0,0,0,.05.08Z" transform="translate(-402.66 -192.11)"/><path class="cls-1" d="M428.19,239a1.24,1.24,0,0,1,.38.45C428.63,239.39,428.56,239.25,428.19,239Z" transform="translate(-402.66 -192.11)"/><path class="cls-1" d="M418,215.73l-.54.87a1.94,1.94,0,0,1,.69-.6C418,215.94,417.78,216,418,215.73Z" transform="translate(-402.66 -192.11)"/><path class="cls-1" d="M425.71,212c.05-.14.2-.2.25-.34l-.18-.14C425.38,211.92,425.23,212.33,425.71,212Z" transform="translate(-402.66 -192.11)"/><path class="cls-1" d="M419.76,216.14c.35.22.64-.3,1-.83l-.08.08C420.42,214.87,420.09,215.51,419.76,216.14Z" transform="translate(-402.66 -192.11)"/><path class="cls-1" d="M420.88,215.2a3.12,3.12,0,0,1,.4-.45C421.16,214.54,421.08,214.89,420.88,215.2Z" transform="translate(-402.66 -192.11)"/><path class="cls-1" d="M414.84,221.38c.25-.26-.36-.42-.12-.52-.13-.29-.29.29-.27.74S414.57,222.32,414.84,221.38Z" transform="translate(-402.66 -192.11)"/><polygon class="cls-1" points="18.45 24.54 17.92 24.38 17.98 24.91 18.45 24.54"/><path class="cls-1" d="M417.68,220.42l.69-.78c-.08,0,0-.17,0-.33C418,219.82,417.54,220.36,417.68,220.42Z" transform="translate(-402.66 -192.11)"/><path class="cls-1" d="M418.39,219.3a3.2,3.2,0,0,0,.43-.72A2.93,2.93,0,0,0,418.39,219.3Z" transform="translate(-402.66 -192.11)"/><polygon class="cls-1" points="17.62 25.67 17.36 25.84 16.88 26.38 17.62 25.67"/><path class="cls-1" d="M416,231.22c.18.34.41.66.62,1,.2,0,.16-.3-.08-.65C416.32,231.38,416.11,231,416,231.22Z" transform="translate(-402.66 -192.11)"/><path class="cls-1" d="M416.7,227.74c-.09.28-.21.3-.37.48l.62,0Z" transform="translate(-402.66 -192.11)"/><path class="cls-1" d="M417.4,230.56c.15.06,1.06,1.09.48,0C417.7,230.55,417.25,229.65,417.4,230.56Z" transform="translate(-402.66 -192.11)"/><polygon class="cls-1" points="26.34 49.18 26.08 49.08 25.71 50.02 26.34 49.18"/><path class="cls-1" d="M443.54,243c-1.2-.47-.41.56-1.49.06-.34.18.88.41.54.56C443.4,243.5,443.77,243.71,443.54,243Z" transform="translate(-402.66 -192.11)"/><path class="cls-1" d="M442.59,243.61a3.33,3.33,0,0,0-.42.08A1.46,1.46,0,0,0,442.59,243.61Z" transform="translate(-402.66 -192.11)"/><polygon class="cls-1" points="67.39 106.91 68.2 107.27 67.71 106.84 67.39 106.91"/><path class="cls-1" d="M471.8,298.55l.1.67.61-.5C472.31,298.73,471.93,298.72,471.8,298.55Z" transform="translate(-402.66 -192.11)"/><path class="cls-1" d="M430.2,239.64l0-.16c-.19-.1-.36,0-.7.13C429.73,239.61,430,239.61,430.2,239.64Z" transform="translate(-402.66 -192.11)"/><polygon class="cls-1" points="18.21 53.09 18.36 52.98 17.72 52.75 18.21 53.09"/><path class="cls-1" d="M414.51,251.9c.27-.24.48-.63.75-.87C414.78,251.66,413.92,251.46,414.51,251.9Z" transform="translate(-402.66 -192.11)"/><path class="cls-1" d="M444.33,313.08a148.05,148.05,0,0,1,20.87-5.67c3.62-.68,8.08-.16,11.5-1.4a4.58,4.58,0,0,0,3-3.27c1.37-5.11-2.48-11.9-4.62-16.28a127.21,127.21,0,0,0-6.24-11.3c-.62-1-3.41,0-2.67,1.22,4.3,6.91,10.7,16.39,10.75,24.79,0,3.74-2.37,3.16-5.45,3.44a84.34,84.34,0,0,0-11.42,2,163.6,163.6,0,0,0-16.24,4.68c-1.7.59-1.28,2.39.48,1.78Z" transform="translate(-402.66 -192.11)"/></svg>